<?xml version="1.0" encoding="UTF-8" standalone="no"?>
<!-- Created with Inkscape (http://www.inkscape.org/) -->

<svg
   width="59.139671mm"
   height="59.520664mm"
   viewBox="0 0 59.139671 59.520664"
   version="1.1"
   id="svg1"
   xml:space="preserve"
   sodipodi:docname="logo.svg"
   inkscape:version="1.4.2 (ebf0e94, 2025-05-08)"
   inkscape:export-filename="Website_massage/image/logo.svg"
   inkscape:export-xdpi="96"
   inkscape:export-ydpi="96"
   xmlns:inkscape="http://www.inkscape.org/namespaces/inkscape"
   xmlns:sodipodi="http://sodipodi.sourceforge.net/DTD/sodipodi-0.dtd"
   xmlns="http://www.w3.org/2000/svg"
   xmlns:svg="http://www.w3.org/2000/svg"><sodipodi:namedview
     id="namedview1"
     pagecolor="#ffffff"
     bordercolor="#000000"
     borderopacity="0.25"
     inkscape:showpageshadow="2"
     inkscape:pageopacity="0.0"
     inkscape:pagecheckerboard="0"
     inkscape:deskcolor="#d1d1d1"
     inkscape:document-units="mm"
     showguides="true"
     inkscape:zoom="1.7114154"
     inkscape:cx="126.21132"
     inkscape:cy="147.83085"
     inkscape:window-width="1920"
     inkscape:window-height="1052"
     inkscape:window-x="1920"
     inkscape:window-y="0"
     inkscape:window-maximized="1"
     inkscape:current-layer="svg1"><inkscape:page
       x="0"
       y="0"
       width="59.139671"
       height="59.520664"
       id="page2"
       margin="0"
       bleed="0" /><sodipodi:guide
       position="-63.868462,23.824026"
       orientation="0,-1"
       id="guide1"
       inkscape:locked="false" /><sodipodi:guide
       position="-14.216509,23.824026"
       orientation="1,0"
       id="guide2"
       inkscape:locked="false" /></sodipodi:namedview><defs
     id="defs1" /><g
     inkscape:groupmode="layer"
     id="layer2"
     inkscape:label="Layer 1"><g
       id="g8"
       inkscape:label="A_C_B_T"><text
         xml:space="preserve"
         style="font-style:normal;font-variant:normal;font-weight:normal;font-stretch:normal;font-size:19.7556px;font-family:Lora;-inkscape-font-specification:Lora;text-align:center;letter-spacing:0px;writing-mode:lr-tb;direction:ltr;text-anchor:middle;fill:#000000;fill-opacity:1;stroke:none;stroke-width:0.589;stroke-linecap:round;stroke-miterlimit:4.8;paint-order:stroke markers fill"
         x="18.28414"
         y="26.756744"
         id="text4"><tspan
           sodipodi:role="line"
           id="tspan4"
           style="font-size:19.7556px;letter-spacing:0px;stroke-width:0.589"
           x="18.28414"
           y="26.756744">A</tspan></text><text
         xml:space="preserve"
         style="font-style:normal;font-variant:normal;font-weight:normal;font-stretch:normal;font-size:19.7556px;font-family:Lora;-inkscape-font-specification:Lora;text-align:center;letter-spacing:0px;writing-mode:lr-tb;direction:ltr;text-anchor:middle;fill:#000000;fill-opacity:1;stroke:none;stroke-width:0.589;stroke-linecap:round;stroke-miterlimit:4.8;paint-order:stroke markers fill"
         x="39.227551"
         y="26.787539"
         id="text5"><tspan
           sodipodi:role="line"
           id="tspan5"
           style="font-size:19.7556px;letter-spacing:0px;stroke-width:0.589"
           x="39.227551"
           y="26.787539">C</tspan></text><text
         xml:space="preserve"
         style="font-style:normal;font-variant:normal;font-weight:normal;font-stretch:normal;font-size:19.7556px;font-family:Lora;-inkscape-font-specification:Lora;text-align:center;letter-spacing:0px;writing-mode:lr-tb;direction:ltr;text-anchor:middle;fill:#000000;fill-opacity:1;stroke:none;stroke-width:0.589;stroke-linecap:round;stroke-miterlimit:4.8;paint-order:stroke markers fill"
         x="18.878971"
         y="46.886135"
         id="text6"><tspan
           sodipodi:role="line"
           id="tspan6"
           style="font-size:19.7556px;letter-spacing:0px;stroke-width:0.589"
           x="18.878971"
           y="46.886135">B</tspan></text><text
         xml:space="preserve"
         style="font-style:normal;font-variant:normal;font-weight:normal;font-stretch:normal;font-size:19.7556px;font-family:Lora;-inkscape-font-specification:Lora;text-align:center;letter-spacing:0px;writing-mode:lr-tb;direction:ltr;text-anchor:middle;fill:#000000;fill-opacity:1;stroke:none;stroke-width:0.589;stroke-linecap:round;stroke-miterlimit:4.8;paint-order:stroke markers fill"
         x="39.473175"
         y="46.904064"
         id="text7"><tspan
           sodipodi:role="line"
           id="tspan7"
           style="font-size:19.7556px;letter-spacing:0px;stroke-width:0.589"
           x="39.473175"
           y="46.904064">T</tspan></text></g><g
       id="g9"
       inkscape:label="CIRCULAR LINES"
       style="display:none"
       transform="matrix(1.9642834,0,0,1.9642834,-28.920025,-3.689981)"><path
         d="m 29.372158,31.084144 c 1.239441,0.11201 2.57132,-0.132586 3.764893,-0.452257 4.403835,-1.179622 8.057922,-4.625246 9.570263,-8.91717 0.4913,-1.394208 0.683203,-2.815415 0.744729,-4.284196 -0.03904,-0.03934 -0.171127,-0.01977 -0.227132,-0.02188 -0.222014,-0.0081 -0.445031,-0.02338 -0.665338,0.0098 -0.01987,-0.215188 -9.03e-4,-0.434993 6.02e-4,-0.650884 0.06132,-0.141619 0.206356,-0.105386 0.347975,-0.105085 0.316761,6.02e-4 0.633521,-0.0049 0.950181,-0.0017 0.08903,9.03e-4 0.281833,-0.03904 0.355804,0.01204 -0.02198,0.770924 -0.028,1.53131 -0.118534,2.29832 -0.209066,1.770286 -0.781263,3.526018 -1.625958,5.093963 -0.716725,1.330475 -1.638402,2.595309 -2.728095,3.646359 -3.92508,3.785871 -9.737676,5.128389 -14.90029,3.336023 -2.585071,-0.897388 -4.818454,-2.506584 -6.617846,-4.554085 -0.452659,-0.514987 -0.781062,-1.111573 -1.198692,-1.650046 0.162496,-0.09174 0.323084,-0.1911 0.477349,-0.295984 0.04757,-0.03222 0.11181,-0.09425 0.175543,-0.06263 0.07508,0.03724 0.144931,0.208263 0.191803,0.277116 0.163599,0.240983 0.325392,0.485779 0.503043,0.716726 0.560855,0.72877 1.183938,1.425522 1.88059,2.027729 1.898556,1.641313 4.13505,2.820031 6.605501,3.315848 0.616157,0.123653 1.235225,0.208062 1.863427,0.238373 0.213582,0.01034 0.437302,0.05049 0.650182,0.02359 z"
         opacity="1"
         fill="#81bab4"
         fill-rule="evenodd"
         id="path9"
         style="display:inline;stroke-width:0.100368;shape-rendering:geometricPrecision" /><path
         d="m 16.60147,16.670034 c 0.01004,0.184577 0.0267,0.371261 0.04246,0.555736 0.0064,0.07477 -0.01395,0.18287 0.082,0.184175 -0.155671,0.06454 -0.383807,0.03493 -0.550417,0.03553 -0.413013,0.0015 -0.826729,-0.0077 -1.239541,-0.0028 -0.09083,-1.821172 0.156874,-3.741508 0.766006,-5.462413 1.024052,-2.8931996 2.927124,-5.4334062 5.446254,-7.1940567 3.792695,-2.6507115 8.959324,-3.3169525 13.299325,-1.7535245 1.694106,0.6102358 3.307417,1.4718926 4.679745,2.6488045 0.514686,0.4415176 0.975072,0.9311114 1.434255,1.428333 0.423853,0.4588813 0.822814,0.9576085 1.167276,1.4790188 0.117932,0.1784538 0.316861,0.3936422 0.382201,0.5954816 -0.155069,0.072365 -0.302609,0.1573766 -0.454365,0.2356635 -0.06735,0.034727 -0.156072,0.1153225 -0.231548,0.1172295 C 41.200193,9.0494145 40.819899,8.5904329 40.482463,8.1767172 39.791933,7.3303162 39.042788,6.5421285 38.170392,5.8807052 34.486797,3.0880738 29.691729,2.2287254 25.272237,3.5941278 c -1.166675,0.3604205 -2.294105,0.9295055 -3.325082,1.5788847 -2.859677,1.8010987 -4.953248,4.7365534 -5.828354,7.9897725 -0.309534,1.150716 -0.406288,2.296212 -0.473133,3.48025 0.06424,0.03643 0.16661,0.01154 0.238875,0.01174 0.16119,3.01e-4 0.32198,0.0043 0.48327,0.0021 0.02951,-4.01e-4 0.229341,-0.0095 0.233657,0.01315 z"
         opacity="1"
         fill="#82bcb5"
         fill-rule="evenodd"
         id="path6"
         style="display:inline;stroke-width:0.100368;shape-rendering:geometricPrecision" /><path
         d="m 42.560175,16.767592 c -0.0015,0.215891 -0.02047,0.435696 -6.02e-4,0.650884 0.01546,0.89227 -0.14182,1.800798 -0.338039,2.667373 -0.840981,3.714108 -3.401462,7.012893 -6.809548,8.724464 -1.34844,0.677181 -2.843919,1.120505 -4.339197,1.308494 -0.546202,0.06865 -1.099127,0.06584 -1.647737,0.09394 -0.901604,-0.04808 -1.797586,-0.11201 -2.681324,-0.310939 -2.269113,-0.510771 -4.391891,-1.620336 -6.097941,-3.205343 -0.847405,-0.787285 -1.501602,-1.680658 -2.171958,-2.612773 0.07166,-0.156674 0.489594,-0.416526 0.66052,-0.419136 0.349983,0.499229 0.694545,1.012008 1.09441,1.473399 1.619232,1.868545 3.825114,3.290756 6.22852,3.891457 0.677281,0.16932 1.371524,0.307727 2.06898,0.359818 0.157075,0.01174 0.316058,0.01054 0.472631,0.026 0.06845,0.0067 0.174138,0.0284 0.229541,-0.01626 0.08341,-1.758242 0.01204,-3.539267 0.0064,-5.299717 -0.007,-2.223346 0.03372,-4.449803 -0.01897,-6.671944 -0.641349,-0.06725 -1.305583,-0.02238 -1.949843,-0.02309 -1.137568,-0.0014 -2.275035,-0.0051 -3.412603,-0.0048 -1.605884,4.01e-4 -3.211868,-0.0033 -4.817751,10e-4 -0.767311,0.002 -1.543656,-0.03111 -2.309762,0.0095 -0.09595,-0.0013 -0.07558,-0.109401 -0.082,-0.184175 -0.01576,-0.184475 -0.03242,-0.371159 -0.04246,-0.555736 -0.04406,-0.424756 2e-4,-0.875808 0.03623,-1.299962 0.100468,-1.182232 0.39294,-2.347601 0.841584,-3.444922 0.511574,-1.251585 1.20913,-2.4347197 2.084135,-3.4683065 0.963932,-1.1387721 2.142048,-2.1519843 3.431272,-2.9061473 3.079582,-1.8012995 6.903793,-2.2059821 10.315091,-1.2084274 2.279351,0.6665421 4.405942,1.9585757 5.985229,3.7405042 0.337536,0.3808955 0.639041,0.7839723 0.937334,1.1954799 0.144328,0.1991296 0.369554,0.4569743 0.428771,0.6990612 C 40.467709,10.131379 40.216689,10.213379 40.011036,10.35008 39.838604,10.116323 39.699294,9.857475 39.533486,9.6184995 39.141851,9.0538307 38.703546,8.5278035 38.211844,8.0471425 36.634866,6.5053939 34.613862,5.4367788 32.47613,4.9175766 31.649,4.7167408 30.806312,4.6488922 29.959309,4.6022212 c 0.0817,0.9822989 0.0078,2.0006298 0.0094,2.986843 0.003,1.9069867 0.0024,3.8140738 -0.0018,5.7210608 -0.0024,1.111472 -0.04597,2.235891 0.01305,3.345155 1.115286,-0.04547 2.242215,-0.0064 3.358705,-0.0036 2.091061,0.005 4.182022,0.01024 6.273083,0.0081 0.752658,-7.03e-4 1.505415,-0.0037 2.258173,-0.0022 0.147541,3.01e-4 0.704983,-0.0815 0.690229,0.110003 z M 17.37671,15.780776 c -0.02288,0.28635 -0.0092,0.574606 -0.03202,0.860553 2.268009,-0.03673 4.541739,0.003 6.810451,0.0057 1.693605,0.0021 3.393734,-0.04226 5.086435,-0.0017 -0.0558,-1.122312 -0.0083,-2.261987 -0.0064,-3.385905 0.0034,-2.024016 0.0015,-4.048031 0.0025,-6.0720464 4.02e-4,-0.860051 0.03593,-1.7266259 -0.0068,-2.5855728 -0.416124,-0.051087 -0.872697,0.021278 -1.285911,0.074774 -0.926896,0.1202405 -1.834521,0.3271988 -2.706717,0.6651369 -3.458571,1.3401098 -6.120022,4.0962074 -7.321323,7.6071703 -0.214586,0.627198 -0.361926,1.287317 -0.454365,1.943119 -0.04135,0.293475 -0.03603,0.598192 -0.08581,0.888756 z m 12.593439,1.756636 c -0.07066,0.717328 -0.0021,1.474904 -0.0028,2.196247 -0.0015,1.488754 -0.0042,2.977609 -0.0027,4.466363 0.0011,1.17099 -0.0017,2.341981 -0.0017,3.512971 0,0.551219 -0.06755,1.152121 0.0039,1.697921 1.243455,-0.123854 2.436827,-0.246805 3.626185,-0.667948 3.372054,-1.194275 6.175325,-3.88423 7.404127,-7.25488 0.356606,-0.978284 0.651286,-2.020301 0.739108,-3.062118 0.02108,-0.249715 0.04115,-0.500936 0.04757,-0.751554 0.0017,-0.06644 0.03503,-0.19371 0.0095,-0.253127 -2.66657,-0.04226 -5.336251,-0.0093 -8.003423,-0.01194 -0.869786,-8.03e-4 -1.739673,-9.03e-4 -2.60946,0 -0.376479,4.02e-4 -0.844092,-0.07778 -1.208728,0.01315 0.0076,0.08913 0.01154,0.05109 -0.0016,0.114921 z"
         opacity="1"
         fill="#166f66"
         fill-rule="evenodd"
         id="path8"
         style="display:inline;stroke-width:0.100368;shape-rendering:geometricPrecision" /></g></g><g
     inkscape:groupmode="layer"
     id="layer1"
     inkscape:label="Circular lines 2"><g
       id="g7"
       inkscape:label="outer circle"
       transform="matrix(1.0565941,0,0,1.0565864,69.046368,-8.0778943)"
       style="stroke-width:1.23037289;stroke-dasharray:none"><path
         style="fill:none;stroke:#81bbb5;stroke-width:1.23037289;stroke-miterlimit:4.8;paint-order:stroke markers fill;stroke-dasharray:none"
         id="path4"
         sodipodi:type="arc"
         sodipodi:cx="-37.362061"
         sodipodi:cy="35.811768"
         sodipodi:rx="26.406656"
         sodipodi:ry="26.406656"
         sodipodi:start="3.1459691"
         sodipodi:end="5.7741144"
         sodipodi:arc-type="arc"
         d="m -63.768464,35.696201 a 26.406656,26.406656 0 0 1 19.813255,-25.454766 26.406656,26.406656 0 0 1 29.65138,12.700622"
         sodipodi:open="true" /><path
         style="fill:none;stroke:#81bbb5;stroke-width:1.23037289;stroke-miterlimit:4.8;paint-order:stroke markers fill;stroke-dasharray:none"
         id="path5"
         sodipodi:type="arc"
         sodipodi:cx="37.362061"
         sodipodi:cy="-35.811768"
         sodipodi:rx="26.406656"
         sodipodi:ry="26.406656"
         sodipodi:start="3.1459691"
         sodipodi:end="5.7741144"
         sodipodi:arc-type="arc"
         d="M 10.955657,-35.927335 A 26.406656,26.406656 0 0 1 30.768912,-61.3821 26.406656,26.406656 0 0 1 60.420292,-48.681479"
         sodipodi:open="true"
         transform="scale(-1)" /><path
         style="fill:none;stroke:#81bbb5;stroke-width:1.24416;stroke-miterlimit:4.8;stroke-dasharray:none;paint-order:stroke markers fill"
         d="m -64.381179,35.696275 54.038432,0.230983"
         id="path7" /></g><g
       id="g3"
       inkscape:label="inner circle"
       transform="matrix(0.94718625,0,0,0.94718625,64.958666,-4.1600815)"
       style="stroke-width:1.37248614;stroke-dasharray:none"><path
         style="fill:none;stroke:#166f66;stroke-width:1.37248614;stroke-miterlimit:4.8;paint-order:stroke markers fill;stroke-dasharray:none;stroke-opacity:1"
         id="path1"
         sodipodi:type="arc"
         sodipodi:cx="-37.362061"
         sodipodi:cy="35.811768"
         sodipodi:rx="26.406656"
         sodipodi:ry="26.406656"
         sodipodi:start="3.1459691"
         sodipodi:end="5.7741144"
         sodipodi:arc-type="arc"
         d="m -63.768464,35.696201 a 26.406656,26.406656 0 0 1 19.813255,-25.454766 26.406656,26.406656 0 0 1 29.65138,12.700622"
         sodipodi:open="true" /><path
         style="fill:none;stroke:#166f66;stroke-width:1.37249;stroke-miterlimit:4.8;stroke-dasharray:none;stroke-opacity:1;paint-order:stroke markers fill"
         id="path2"
         sodipodi:type="arc"
         sodipodi:cx="37.362061"
         sodipodi:cy="-35.811768"
         sodipodi:rx="26.406656"
         sodipodi:ry="26.406656"
         sodipodi:start="3.1202589"
         sodipodi:end="5.7741144"
         sodipodi:arc-type="arc"
         d="m 10.961413,-35.248457 a 26.406656,26.406656 0 0 1 19.479343,-26.046777 26.406656,26.406656 0 0 1 29.979536,12.613755"
         sodipodi:open="true"
         transform="scale(-1)" /><path
         style="fill:none;stroke:#166f66;stroke-width:1.38921;stroke-miterlimit:4.8;stroke-dasharray:none;stroke-opacity:1;paint-order:stroke markers fill"
         d="m -64.451976,35.696242 54.127521,0.231049"
         id="path3" /><path
         style="fill:none;stroke:#166f66;stroke-width:1.38921;stroke-miterlimit:4.8;stroke-dasharray:none;stroke-opacity:1;paint-order:stroke markers fill"
         d="M -37.272691,8.748006 -37.50374,62.875527"
         id="path11" /></g></g></svg>
